<svg width="31" height="32" viewBox="0 0 31 32" fill="none" xmlns="http://www.w3.org/2000/svg">
<path d="M24.2701 25.2023C25.0685 25.2023 25.8343 25.5254 26.3989 26.1007C26.9635 26.6759 27.2807 27.4561 27.2807 28.2697C27.2807 29.0832 26.9635 29.8634 26.3989 30.4386C25.8343 31.0139 25.0685 31.3371 24.2701 31.3371C23.4716 31.3371 22.7058 31.0139 22.1412 30.4386C21.5767 29.8634 21.2595 29.0832 21.2595 28.2697C21.2595 26.5673 22.5992 25.2023 24.2701 25.2023ZM0.185303 0.663086H5.10762L6.5226 3.73048H28.786C29.1852 3.73048 29.5681 3.89207 29.8504 4.17969C30.1327 4.46732 30.2912 4.85742 30.2912 5.26418C30.2912 5.52491 30.216 5.78564 30.1106 6.03103L24.7216 15.9541C24.2098 16.8896 23.2164 17.5338 22.0874 17.5338H10.8729L9.51815 20.0337L9.47299 20.2177C9.47299 20.3194 9.51264 20.417 9.58321 20.4889C9.65378 20.5608 9.7495 20.6012 9.84931 20.6012H27.2807V23.6686H9.21709C8.41863 23.6686 7.65287 23.3454 7.08827 22.7701C6.52368 22.1949 6.20649 21.4147 6.20649 20.6012C6.20649 20.0644 6.34197 19.5583 6.56776 19.1288L8.61497 15.3713L3.1959 3.73048H0.185303V0.663086ZM9.21709 25.2023C10.0155 25.2023 10.7813 25.5254 11.3459 26.1007C11.9105 26.6759 12.2277 27.4561 12.2277 28.2697C12.2277 29.0832 11.9105 29.8634 11.3459 30.4386C10.7813 31.0139 10.0155 31.3371 9.21709 31.3371C8.41863 31.3371 7.65287 31.0139 7.08827 30.4386C6.52368 29.8634 6.20649 29.0832 6.20649 28.2697C6.20649 26.5673 7.54621 25.2023 9.21709 25.2023ZM22.7648 14.4664L26.9495 6.79788H7.92253L11.475 14.4664H22.7648Z" fill="#0BA289"/>
</svg>
