<svg width="94" height="93" viewBox="0 0 94 93" fill="none" xmlns="http://www.w3.org/2000/svg">
<g id="cover-icon">
<path id="Vector" d="M63.1925 34.8837C66.1759 33.8907 69.4007 33.8907 72.3841 34.8837C74.3314 35.5346 75.9401 36.6723 77.5011 38.0375C78.9934 39.3499 80.6867 41.1014 82.7134 43.1969C85.1335 45.7122 87.557 48.224 89.9842 50.7322C92.3548 53.177 93.3073 55.7593 93.2968 59.2095C93.265 67.9884 93.0798 74.0103 90.561 78.9474C88.1502 83.6754 84.3047 87.5191 79.5754 89.9276C72.4582 93.5577 63.3565 92.6687 55.6412 92.6687H38.3587C32.5802 92.6687 27.9976 92.6687 24.3093 92.3671C20.531 92.0602 17.3402 91.4146 14.4244 89.9329C9.69443 87.523 5.84885 83.6774 3.43895 78.9474C1.8779 75.8835 1.26936 72.5498 0.951863 68.4911C0.486196 62.3527 5.6932 57.3839 9.69899 53.3463C11.3235 51.7059 13.038 50.3301 15.1653 49.5469C18.3927 48.3666 21.9338 48.3666 25.1612 49.5469C27.2885 50.3301 29.003 51.7059 30.6275 53.3463C32.2044 54.9338 33.9719 57.0505 36.1097 59.6169C36.2949 59.8445 36.5859 60.0562 36.8558 59.7757L52.8631 43.1969C54.8951 41.1014 56.5832 39.3499 58.0754 38.0375C59.6365 36.6723 61.2504 35.5346 63.1925 34.8837ZM63.3142 44.0012C62.0971 45.0702 60.6313 46.5836 58.4617 48.8325L42.5655 65.2896C41.7499 66.1348 40.7654 66.7986 39.6762 67.2379C38.5869 67.6771 37.4173 67.882 36.2436 67.839C35.0699 67.7961 33.9184 67.5063 32.8641 66.9887C31.8098 66.471 30.8765 65.737 30.1248 64.8345C27.8441 62.104 26.2937 60.2467 24.9919 58.9396C23.7219 57.6537 22.9811 57.2039 22.436 57.0029C20.9684 56.4659 19.3581 56.4659 17.8905 57.0029C17.3454 57.2039 16.6099 57.6537 15.3346 58.9396C13.3767 60.9081 11.6463 63.1042 9.87361 65.2367C9.02166 66.258 8.78882 66.7977 8.88407 68.0942C9.14865 71.5655 9.66195 73.6769 10.5086 75.3438C12.1573 78.5789 14.7876 81.2093 18.0228 82.8579C19.6367 83.6782 21.674 84.1862 24.9549 84.456C28.2886 84.7259 32.5431 84.7312 38.5333 84.7312H55.4666C61.7743 84.7312 70.0981 85.853 75.9771 82.8579C79.2123 81.2093 81.8426 78.5789 83.4913 75.3438C84.9835 72.4069 85.3222 68.4487 85.3592 59.183C85.3645 57.7331 85.1423 57.1404 84.0998 56.0662L77.1148 48.8325C74.9452 46.5836 73.4847 45.0754 72.2624 44.0012C69.5372 41.6094 66.1558 41.5036 63.3142 44.0012Z" fill="#0BA289"/>
<path id="Vector_2" d="M38.3587 0.0644531H55.6413C61.4198 0.0644531 66.0024 0.0644527 69.6907 0.366078C73.4689 0.672994 76.6598 1.31858 79.5808 2.80024C84.3096 5.21242 88.1534 9.05986 90.561 13.791C92.048 16.7015 92.6935 19.8976 93.0005 23.6759C93.3021 27.3642 93.3021 31.9467 93.3021 37.7252V55.0078C93.3021 60.7863 93.3021 65.3689 93.0005 69.0572C92.6935 72.8355 92.048 76.0263 90.5663 78.9473C88.1541 83.6762 84.3067 87.5199 79.5755 89.9275C76.6651 91.4145 73.4689 92.0601 69.6907 92.367C66.0024 92.6686 61.4198 92.6686 55.6413 92.6686H38.3587C32.5802 92.6686 27.9976 92.6686 24.3093 92.367C20.5311 92.0601 17.3402 91.4145 14.4245 89.9328C9.69448 87.5229 5.84889 83.6773 3.43899 78.9473C1.95203 76.0263 1.30645 72.8355 0.999531 69.0572C0.697906 65.3689 0.697906 60.7863 0.697906 55.0078V37.7252C0.697906 31.9467 0.697906 27.3642 0.999531 23.6759C1.30645 19.8976 1.95203 16.7067 3.4337 13.791C5.84498 9.06021 9.69251 5.21454 14.4245 2.80554C17.3349 1.31858 20.5311 0.672994 24.3093 0.366078C27.9976 0.0644527 32.5802 0.0644531 38.3587 0.0644531ZM24.9549 8.27712C21.6741 8.5417 19.6368 9.055 18.0228 9.8752C14.7877 11.5239 12.1573 14.1542 10.5087 17.3894C9.68845 19.0033 9.18045 21.0406 8.91057 24.3215C8.6407 27.6552 8.63541 31.9097 8.63541 37.8999V54.8332C8.63541 60.8287 8.63541 65.0832 8.91057 68.4116C9.17516 71.6925 9.68845 73.7298 10.5087 75.3437C12.1573 78.5789 14.7877 81.2092 18.0228 82.8579C19.6368 83.6781 21.6741 84.1861 24.9549 84.456C28.2887 84.7258 32.5432 84.7311 38.5333 84.7311H55.4667C61.4621 84.7311 65.7166 84.7311 69.0451 84.456C72.3259 84.1914 74.3632 83.6781 75.9772 82.8579C79.2123 81.2092 81.8427 78.5789 83.4913 75.3437C84.3115 73.7298 84.8195 71.6925 85.0894 68.4116C85.3593 65.0779 85.3646 60.8234 85.3646 54.8332V37.8999C85.3646 31.9097 85.3646 27.6499 85.0894 24.3215C84.8248 21.0406 84.3115 19.0033 83.4913 17.3894C81.8427 14.1542 79.2123 11.5239 75.9772 9.8752C74.3632 9.055 72.3259 8.547 69.0451 8.27712C65.7113 8.00725 61.4568 8.00195 55.4667 8.00195H38.5333C32.5432 8.00195 28.2834 8.00195 24.9549 8.27712Z" fill="#0BA289"/>
<path id="Vector_3" d="M36.4166 23.877C34.6623 23.877 32.9799 24.5738 31.7394 25.8143C30.4989 27.0548 29.802 28.7372 29.802 30.4915C29.802 32.2458 30.4989 33.9283 31.7394 35.1688C32.9799 36.4092 34.6623 37.1061 36.4166 37.1061C38.1709 37.1061 39.8534 36.4092 41.0938 35.1688C42.3343 33.9283 43.0312 32.2458 43.0312 30.4915C43.0312 28.7372 42.3343 27.0548 41.0938 25.8143C39.8534 24.5738 38.1709 23.877 36.4166 23.877ZM21.8645 30.4915C21.8645 26.6321 23.3977 22.9307 26.1267 20.2017C28.8558 17.4726 32.5572 15.9395 36.4166 15.9395C40.2761 15.9395 43.9774 17.4726 46.7065 20.2017C49.4355 22.9307 50.9687 26.6321 50.9687 30.4915C50.9687 34.351 49.4355 38.0524 46.7065 40.7814C43.9774 43.5105 40.2761 45.0436 36.4166 45.0436C32.5572 45.0436 28.8558 43.5105 26.1267 40.7814C23.3977 38.0524 21.8645 34.351 21.8645 30.4915Z" fill="#0BA289"/>
</g>
</svg>
