<svg width="37" height="32" viewBox="0 0 37 32" fill="none" xmlns="http://www.w3.org/2000/svg">
<g id="proicons:search">
<path id="Vector" d="M23.5816 21.5816C24.5924 20.5709 25.3942 19.371 25.9412 18.0503C26.4882 16.7297 26.7698 15.3143 26.7698 13.8849C26.7698 12.4555 26.4882 11.04 25.9412 9.71942C25.3942 8.3988 24.5924 7.19886 23.5816 6.18811C22.5709 5.17735 21.371 4.37558 20.0503 3.82856C18.7297 3.28155 17.3143 3 15.8849 3C14.4555 3 13.04 3.28155 11.7194 3.82856C10.3988 4.37558 9.19886 5.17735 8.18811 6.18811C6.1468 8.22942 5 10.998 5 13.8849C5 16.7717 6.1468 19.5403 8.18811 21.5816C10.2294 23.623 12.998 24.7698 15.8849 24.7698C18.7717 24.7698 21.5403 23.623 23.5816 21.5816ZM23.5816 21.5816L30.4374 28.4374" stroke="black" stroke-width="2.3125" stroke-linecap="round" stroke-linejoin="round"/>
</g>
</svg>
